<svg xmlns="http://www.w3.org/2000/svg" width="138.38" height="30.8" viewBox="0 0 188.7 42"><title>fixagraphlogo</title><path d="M116.2,18.1,116,18Z" fill="#514969"/><path d="M188.4,30c-1.9,0-2.2-.5-2.2-1.8V18.4c0-5.5-2.8-8.1-7.3-8.1a7.57,7.57,0,0,0-7.8,5.9V.9h-9.9V4.6h.1c1.6,0,2.4.4,2.4,2.6V28c0,1.6-.3,2-1.9,2h-.6v3.4H174V30h-.5c-2.1,0-2.4-.3-2.4-1.7V21c0-3.9,1.8-6.1,4.5-6.1,2.1,0,3.2,1.2,3.2,3.7v9.7c0,1.5-.5,1.7-2.4,1.7h-.5v3.4h12.8V30Z" fill="#514969"/><path d="M152.7,10.3a7.36,7.36,0,0,0-7.5,6.2v-.2a16.64,16.64,0,0,0-1-5.4h-8.8v4h.1c1.6,0,2.4.4,2.4,2.6V29.6a5.66,5.66,0,0,1-1.8.3c-1.3,0-1.9-.7-1.9-2.7V19.6a10,10,0,0,0-1.6-6.1,8.23,8.23,0,0,0-5.6-3,18.8,18.8,0,0,0-5.8,0,6.2,6.2,0,0,1,1.4,3.2,5.69,5.69,0,0,1,2.6.4,3.09,3.09,0,0,1,1.8,3.1c-.1,3.3-5.2,4-7.6,4.7-4.1,1.1-5.8,2.9-5.8,5.9h0a8.33,8.33,0,0,0,.3,2.2,5.3,5.3,0,0,0,.8,1.5c1.7,2.2,4.7,2.8,7.3,2.3a6.47,6.47,0,0,0,5-4.3v.1c0,3.2,3,4.4,5.8,4.2a5.87,5.87,0,0,0,5.1-2.8v5.1c0,1.6-.3,2-1.9,2h-.6v3.4h13.5V38.1h-1.1c-2.1,0-2.4-.3-2.4-1.7V28.6c.8,3.1,3.2,5.2,7.1,5.2,5.6,0,9.5-4.3,9.5-12.1h0C161.9,15,158.6,10.3,152.7,10.3ZM126.8,25.8c0,1.5-.5,3.3-1.9,4.1a2.52,2.52,0,0,1-3.4-.7.76.76,0,0,1-.2-.5,3.21,3.21,0,0,1-.2-1.7v-.2c0-2.1,1-2.8,2.4-3.5a9.76,9.76,0,0,0,3.4-2.3v.1h0Zm27.5-3.5c0,5.4-1.7,7.5-4.4,7.5s-4.7-2.4-4.7-7.6v-.8c0-4,2-6.6,4.7-6.6s4.4,2.1,4.4,6.2Z" fill="#514969"/><path d="M49,28.1l-4.8-6.7,3.7-4.9c1.2-1.6,1.9-2,3.3-2h.4V10.8H41.5v3.7H42c1.7,0,2.2.8.7,2.9l-2,2.6-2.1-3.1c-1.1-1.5-.8-2.3.6-2.3h.5V10.9H27v3.7h.4c1.6,0,1.9.4,3.1,2.2l3.7,5.6-4,5.6c-1.2,1.8-1.7,2-3,2h-.9c-1.8,0-2.1-.3-2.1-2V10.8h-14V7.4c0-3.2,1.5-4.6,3.8-4.6a4.12,4.12,0,0,1,3,.9,3.34,3.34,0,0,0-.1,1.7c.2,1,1.1,2.2,3.4,2.3a3.15,3.15,0,0,0,3.6-3.2c0-2.9-4.6-4.5-9.8-4.5C6.8,0,3.1,3,2.9,9.2v1.6H0v3.6H2.9V28c0,1.6-.3,2-1.9,2H.3v3.4H13.4V30H13c-2.3,0-2.7-.3-2.7-2V14.4h4.2c1.6,0,2.4.4,2.4,2.6V28c0,1.5-.3,2-1.7,2h-.5v3.4H37V30h-.7c-1.8,0-2.2-.9-.8-2.8l2.4-3.5,2.5,3.8c1.1,1.8.9,2.4-.8,2.4h-.5v3.4H52V30h-.2C50.4,30,50,29.4,49,28.1Z" fill="#514969"/><path d="M120.7,14a3.48,3.48,0,0,0-1.6-2.9,4.68,4.68,0,0,0-3.1-.5,6.84,6.84,0,0,0-4.7,3.4,7.89,7.89,0,0,0-1.2,3v-.1a15.8,15.8,0,0,0-1.2-6.1H92.5a21.81,21.81,0,0,0-1.1,4.4C90,12,88,10.3,83.8,10.3c-5.5,0-9.5,4.1-9.5,10.8v.1c0,3.4.9,6.2,2.6,8l-.2.1a5.93,5.93,0,0,1-2.3.5c-1.3,0-1.9-.7-1.9-2.7V19.5a10,10,0,0,0-1.6-6.1,8.23,8.23,0,0,0-5.6-3,19.19,19.19,0,0,0-7.9.4,8.72,8.72,0,0,0-4.2,2.3c-1,1.1-1.5,2.8-.4,4a3.68,3.68,0,0,0,4,.7A3.5,3.5,0,0,0,58.9,14h0a6.64,6.64,0,0,1,4.4,0,3.18,3.18,0,0,1,1.8,3.1c-.1,3.4-5.2,4-7.6,4.7-4,1.1-5.8,2.9-5.8,5.9h0a8.33,8.33,0,0,0,.3,2.2,6,6,0,0,0,.9,1.5c1.7,2.2,4.7,2.8,7.3,2.3a6.3,6.3,0,0,0,5-4.3v.1c0,3.3,3,4.4,5.8,4.2s5.2-1.7,5.8-4.6a8.52,8.52,0,0,0,6.6,2.6c4.3,0,6.6-2.1,7.3-4.3v3c0,5.5-1.7,7.9-6.7,7.9a4.13,4.13,0,0,1-2.2-.4V37c0-2.2-1.6-3.1-3.5-3.1s-3.2,1.1-3.2,2.8c0,3.5,3.9,5.3,10,5.3,8.9,0,13-4.4,13-12.1V17.4c0-2.1.7-2.6,2-2.6h.1c1.6,0,2.4.4,2.4,2.6V28a1.92,1.92,0,0,1-1.9,2h-.8v3.4h13.5V30h-1c-2.1,0-2.6-.3-2.6-2.1V24.4a11.81,11.81,0,0,1,1.7-6.4,5.56,5.56,0,0,1,2.1-2.2,2.76,2.76,0,0,0,2.4,2.5,3.72,3.72,0,0,0,3.9-1.6A4.69,4.69,0,0,0,120.7,14ZM65.1,25.8c0,1.5-.5,3.3-1.9,4.1a2.5,2.5,0,0,1-3.4-.7.76.76,0,0,1-.2-.4,4.67,4.67,0,0,1-.3-1.7v-.2c0-2.1,1-2.8,2.4-3.5a9.76,9.76,0,0,0,3.4-2.3v.1h0Zm25.8-4.4c0,4.2-2,6.8-4.7,6.8s-4.4-2.2-4.4-6.7v-.8c0-4,1.8-6.1,4.4-6.1s4.6,2.5,4.6,6.4Z" fill="#514969"/></svg>