<svg xmlns="http://www.w3.org/2000/svg" width="300" height="300" viewBox="0 0 300 300"><title>Artboard 1</title><circle cx="150" cy="150" r="150" fill="#ebe6f9"/><path d="M231.21,125.91H69.86l2.86-62.54a8.87,8.87,0,0,1,8.87-8.87l60.93-4.24a108.42,108.42,0,0,1,15.08,0l61.88,4.24a8.87,8.87,0,0,1,8.87,8.87Z" fill="#118669"/><path d="M60.43,133.51V106.42a2.1,2.1,0,0,0-.08-.56A1.48,1.48,0,0,0,59,104.73H50.43a1.45,1.45,0,0,0-1.34,1.13,1.77,1.77,0,0,0-.08.56v27.09a1.77,1.77,0,0,0,.08.56,1.47,1.47,0,0,0,1.34,1.13H59a1.5,1.5,0,0,0,1.35-1.13A2.1,2.1,0,0,0,60.43,133.51Z" fill="#118669" stroke="#118669" stroke-miterlimit="10" stroke-width="3"/><path d="M218.44,250H82.63a9.53,9.53,0,0,1-9.52-9.21l-1.61-79H229.56l-1.6,79A9.53,9.53,0,0,1,218.44,250Z" fill="#413468"/><path d="M35.91,111.87H47.47v16.19H35.91a3.47,3.47,0,0,1-3.47-3.47h0v-9.25A3.47,3.47,0,0,1,35.91,111.87Z" fill="#B36A7C"/><path d="M252.06,133.51V106.42a1.77,1.77,0,0,0-.09-.56,1.45,1.45,0,0,0-1.34-1.13h-8.57a1.45,1.45,0,0,0-1.34,1.13,1.77,1.77,0,0,0-.09.56v27.09a1.77,1.77,0,0,0,.09.56,1.47,1.47,0,0,0,1.34,1.13h8.57a1.49,1.49,0,0,0,1.34-1.13A1.77,1.77,0,0,0,252.06,133.51Z" fill="#118669" stroke="#118669" stroke-miterlimit="10" stroke-width="3"/><path d="M158.43,127.88H142.64a5.41,5.41,0,0,0,.75-2.38,7.15,7.15,0,1,1,14.29-.53,4.68,4.68,0,0,1,0,.53A5.28,5.28,0,0,0,158.43,127.88Z" fill="#fff" stroke="#000" stroke-miterlimit="10" stroke-width="3"/><path d="M237.5,128.37H63.57c-.4,0-1.71.65-1.71,1.46V110.1c0,.81,1.31,1.46,1.71,1.46H237.5c.4,0,1.71-.65,1.71-1.46v19.73C239.21,129,237.9,128.37,237.5,128.37Z" fill="#413468"/><rect x="192.9" y="204.82" width="25.71" height="17.14" rx="6.81" ry="6.81" fill="#118669"/><rect x="81.5" y="204.82" width="25.71" height="17.14" rx="6.81" ry="6.81" fill="#118669"/><rect x="115.78" y="204.81" width="17.14" height="17.14" rx="6.77" ry="6.77" fill="#118669"/><rect x="141.48" y="204.81" width="17.14" height="17.14" rx="6.77" ry="6.77" fill="#118669"/><rect x="167.19" y="204.81" width="17.14" height="17.14" rx="6.77" ry="6.77" fill="#118669"/><rect x="81.5" y="179.11" width="17.14" height="17.14" rx="6.77" ry="6.77" fill="#118669"/><rect x="107.21" y="179.11" width="17.14" height="17.14" rx="6.77" ry="6.77" fill="#118669"/><rect x="132.92" y="179.11" width="17.14" height="17.14" rx="6.77" ry="6.77" fill="#118669"/><rect x="158.62" y="179.11" width="17.14" height="17.14" rx="6.77" ry="6.77" fill="#118669"/><rect x="184.33" y="179.11" width="34.28" height="17.14" rx="6.81" ry="6.81" fill="#118669"/><path d="M176.51,247.66H123.6a7.82,7.82,0,0,1-7.82-7.82h0v-7.41a1.9,1.9,0,0,1,1.9-1.9h64.75a1.9,1.9,0,0,1,1.9,1.9v7.41a7.82,7.82,0,0,1-7.82,7.82Z" fill="#B36A7C"/><path d="M217,70v81.25H84.08V70a4.44,4.44,0,0,1,4.44-4.44h124A4.44,4.44,0,0,1,217,70Z" fill="#ebe6f9"/><rect x="122.67" y="99.31" width="13.31" height="13.31" rx="5.29" ry="5.29" fill="#413468"/><rect x="165.09" y="99.31" width="13.31" height="13.31" rx="5.29" ry="5.29" fill="#413468"/><path d="M230.51,158.47a2.56,2.56,0,0,1-2.74,2.29H73.29a2.56,2.56,0,0,1-2.74-2.29l.91-28.91H229.6Z" fill="#413468" stroke="#413468" stroke-miterlimit="10" stroke-width="3"/><path d="M161.5,120.45c-3.81,0-2.65,8.38-.67,10.57,3.91,4.33,12.16,5.07,33.52,5.2H195a5.94,5.94,0,0,1,3.17.92h0c2.94,1.81,4.49,5.85,3.73,9.79s-3.61,6.7-6.9,6.71H106.06c-3.3,0-6.16-2.79-6.9-6.71s.79-8,3.73-9.79h0a5.94,5.94,0,0,1,3.17-.92h.65c21.36-.13,29.61-.87,33.52-5.2,2-2.19,3.14-10.57-.67-10.57H69.79A1.51,1.51,0,0,0,68.36,122l-.91,42.48c0,1.92,1.27,3.49,2.84,3.49H230.78c1.57,0,2.84-1.57,2.84-3.49L232.71,122a1.51,1.51,0,0,0-1.43-1.54Z" fill="#118669" stroke="#118669" stroke-miterlimit="10" stroke-width="3"/><path d="M192.44,153H107.67a9,9,0,0,1-9-9v-4.28a1.9,1.9,0,0,1,1.9-1.9h99a1.9,1.9,0,0,1,1.9,1.9h0V144a9,9,0,0,1-9,9Z" fill="#413468"/><rect x="158.15" y="80.08" width="40.47" height="14.28" rx="4.78" ry="4.78" fill="#413468"/><rect x="108.16" y="80.08" width="40.47" height="14.28" rx="4.78" ry="4.78" fill="#413468"/><rect x="47.58" y="104.25" width="14.28" height="0.95" fill="#413468"/><rect x="47.58" y="106.16" width="14.28" height="0.95" fill="#413468"/><rect x="47.58" y="113.77" width="14.28" height="0.95" fill="#413468"/><rect x="47.58" y="115.68" width="14.28" height="0.95" fill="#413468"/><rect x="47.58" y="114.73" width="14.28" height="0.95" fill="#413468"/><rect x="47.58" y="107.11" width="14.28" height="0.95" fill="#413468"/><rect x="47.58" y="116.63" width="14.28" height="0.95" fill="#413468"/><rect x="47.58" y="112.82" width="14.28" height="0.95" fill="#413468"/><rect x="47.58" y="124.25" width="14.28" height="0.95" fill="#413468"/><rect x="47.58" y="123.3" width="14.28" height="0.95" fill="#413468"/><rect x="47.58" y="126.15" width="14.28" height="0.95" fill="#413468"/><rect x="47.58" y="122.34" width="14.28" height="0.95" fill="#413468"/><rect x="47.58" y="125.2" width="14.28" height="0.95" fill="#413468"/><rect x="47.58" y="131.87" width="14.28" height="0.95" fill="#413468"/><rect x="47.58" y="132.82" width="14.28" height="0.95" fill="#413468"/><rect x="47.58" y="133.77" width="14.28" height="0.95" fill="#413468"/><rect x="47.58" y="105.2" width="14.28" height="0.95" fill="#413468"/><rect x="47.58" y="134.72" width="14.28" height="0.95" fill="#413468"/><path d="M61.75,104.25a1.8,1.8,0,0,0-1.68-1H49.36a1.82,1.82,0,0,0-1.68,1Z" fill="#413468"/><path d="M61.86,135.67a1.82,1.82,0,0,1-1.7,1H49.28a1.82,1.82,0,0,1-1.7-1Z" fill="#413468"/><rect x="239.2" y="104.25" width="14.28" height="0.95" fill="#413468"/><rect x="239.2" y="106.16" width="14.28" height="0.95" fill="#413468"/><rect x="239.2" y="113.77" width="14.28" height="0.95" fill="#413468"/><rect x="239.2" y="115.68" width="14.28" height="0.95" fill="#413468"/><rect x="239.2" y="114.73" width="14.28" height="0.95" fill="#413468"/><rect x="239.2" y="107.11" width="14.28" height="0.95" fill="#413468"/><rect x="239.2" y="116.63" width="14.28" height="0.95" fill="#413468"/><rect x="239.2" y="112.82" width="14.28" height="0.95" fill="#413468"/><rect x="239.2" y="124.25" width="14.28" height="0.95" fill="#413468"/><rect x="239.2" y="123.3" width="14.28" height="0.95" fill="#413468"/><rect x="239.2" y="126.15" width="14.28" height="0.95" fill="#413468"/><rect x="239.2" y="122.34" width="14.28" height="0.95" fill="#413468"/><rect x="239.2" y="125.2" width="14.28" height="0.95" fill="#413468"/><rect x="239.2" y="131.87" width="14.28" height="0.95" fill="#413468"/><rect x="239.2" y="132.82" width="14.28" height="0.95" fill="#413468"/><rect x="239.2" y="133.77" width="14.28" height="0.95" fill="#413468"/><rect x="239.2" y="105.2" width="14.28" height="0.95" fill="#413468"/><rect x="239.2" y="134.72" width="14.28" height="0.95" fill="#413468"/><path d="M253.38,104.25a1.82,1.82,0,0,0-1.68-1H241a1.8,1.8,0,0,0-1.68,1Z" fill="#413468"/><path d="M253.48,135.67a1.82,1.82,0,0,1-1.7,1H240.91a1.82,1.82,0,0,1-1.71-1Z" fill="#413468"/></svg>