<svg xmlns="http://www.w3.org/2000/svg" width="250" height="250" viewBox="0 0 250 250"><title>chat</title><circle cx="125" cy="125" r="125" fill="#f7f5fd"/><path d="M143.12,28.46H76.55A27.23,27.23,0,0,0,63.2,31.87,29.09,29.09,0,0,0,48.09,57.44V93.36a36.63,36.63,0,0,1-17.91,31.58,35.53,35.53,0,0,0,33,1.45,27.62,27.62,0,0,0,13.35,3.41h66.57a28.69,28.69,0,0,0,28.46-29h0V57.44a28.62,28.62,0,0,0-28.46-29Z" fill="#12a37f"/><path d="M76.55,135A32.47,32.47,0,0,1,63,132.09a40.55,40.55,0,0,1-35.49-2.69,5.18,5.18,0,0,1,0-8.92A31.62,31.62,0,0,0,42.91,93.36V57.44A34.23,34.23,0,0,1,60.72,27.33a32.27,32.27,0,0,1,15.83-4h66.6a33.8,33.8,0,0,1,33.61,34.23v43.31A33.87,33.87,0,0,1,143.15,135ZM63.2,121.21a5.1,5.1,0,0,1,2.49.64,22.33,22.33,0,0,0,10.86,2.78h66.57a23.54,23.54,0,0,0,23.29-23.75V57.44A23.46,23.46,0,0,0,143.1,33.63H76.55a22,22,0,0,0-10.81,2.75A23.93,23.93,0,0,0,53.26,57.44V93.36a42.13,42.13,0,0,1-12.88,30.26A30.28,30.28,0,0,0,61,121.7,5.19,5.19,0,0,1,63.2,121.21Z" fill="#514969"/><path d="M113.3,102.68V77.52a5.78,5.78,0,0,1,5.8-5.79H122a5.78,5.78,0,0,1,5.8,5.79v25.06a5.79,5.79,0,0,1-5.8,5.79h-2.9A5.77,5.77,0,0,1,113.3,102.68Z" fill="#f7f5fd"/><path d="M134.94,80.63v-25a5.79,5.79,0,0,1,5.8-5.8h2.89a5.79,5.79,0,0,1,5.8,5.8v25a5.79,5.79,0,0,1-5.8,5.8h-2.89A5.79,5.79,0,0,1,134.94,80.63Z" fill="#f7f5fd"/><path d="M91.67,102.68V55.58a5.78,5.78,0,0,1,5.79-5.8h2.9a5.79,5.79,0,0,1,5.8,5.8v47.1a5.79,5.79,0,0,1-5.8,5.8h-2.9A5.93,5.93,0,0,1,91.67,102.68Z" fill="#f7f5fd"/><path d="M70.13,102.68V55.58a5.79,5.79,0,0,1,5.8-5.8h2.9a5.79,5.79,0,0,1,5.8,5.8v47.1a5.79,5.79,0,0,1-5.8,5.8h-2.9A5.94,5.94,0,0,1,70.13,102.68Z" fill="#f7f5fd"/><path d="M113.41,58.68v-3.1a5.78,5.78,0,0,1,5.79-5.8h2.9a5.79,5.79,0,0,1,5.8,5.8v3.1a5.79,5.79,0,0,1-5.8,5.8h-2.9A5.72,5.72,0,0,1,113.41,58.68Z" fill="#f7f5fd"/><path d="M134.94,102.68V99.57a5.78,5.78,0,0,1,5.8-5.79h2.89a5.78,5.78,0,0,1,5.8,5.79v3.11a5.79,5.79,0,0,1-5.8,5.8h-2.89A5.94,5.94,0,0,1,134.94,102.68Z" fill="#f7f5fd"/><path d="M76.45,80.63V77.52a5.78,5.78,0,0,1,5.8-5.79h11.9a5.78,5.78,0,0,1,5.8,5.79v3.11a5.79,5.79,0,0,1-5.8,5.8H82.25A5.79,5.79,0,0,1,76.45,80.63Z" fill="#f7f5fd"/><path d="M101.71,129.49h66.56a27.28,27.28,0,0,1,13.36,3.42,29.1,29.1,0,0,1,15.11,25.57v7.45a36.6,36.6,0,0,0,17.91,31.57,35.5,35.5,0,0,1-33,1.45,27.58,27.58,0,0,1-13.36,3.42H101.71a28.7,28.7,0,0,1-28.47-29h0v-14.9A28.77,28.77,0,0,1,101.71,129.49Z" fill="#f7f5fd"/><path d="M168.27,212.72H101.71a39,39,0,0,1-38.82-39.4V158.54a38.55,38.55,0,0,1,11.19-27.68,39.11,39.11,0,0,1,27.49-11.72h66.7a37.58,37.58,0,0,1,18.37,4.71,39.4,39.4,0,0,1,20.45,34.63v7.45a26.42,26.42,0,0,0,12.84,22.67,10.35,10.35,0,0,1,0,17.83,45.68,45.68,0,0,1-38,3.78A38.22,38.22,0,0,1,168.27,212.72Zm-66.49-72.88a18.4,18.4,0,0,0-18.19,18.5v15.18A18.35,18.35,0,0,0,101.78,192h66.49a17.15,17.15,0,0,0,8.37-2.14,10.33,10.33,0,0,1,9.39-.29,25.46,25.46,0,0,0,8.14,2.27,47.29,47.29,0,0,1-7.78-25.93v-7.45A18.7,18.7,0,0,0,176.68,142l-.14-.08a16.84,16.84,0,0,0-8.27-2.08Z" fill="#f7f5fd"/><path d="M101.71,129.49h66.56a27.28,27.28,0,0,1,13.36,3.42,29.1,29.1,0,0,1,15.11,25.57v7.45a36.6,36.6,0,0,0,17.91,31.57,35.5,35.5,0,0,1-33,1.45,27.58,27.58,0,0,1-13.36,3.42H101.71a28.7,28.7,0,0,1-28.47-29h0v-14.9A28.77,28.77,0,0,1,101.71,129.49Z" fill="#f7f5fd"/><path d="M168.27,207.54H101.71a33.87,33.87,0,0,1-33.65-34.22V158.48a33.94,33.94,0,0,1,33.58-34.17h66.63a32.44,32.44,0,0,1,15.9,4.09,34.19,34.19,0,0,1,17.75,30.08v7.45a31.6,31.6,0,0,0,15.37,27.12,5.19,5.19,0,0,1,0,8.92,40.55,40.55,0,0,1-35.49,2.69A32.46,32.46,0,0,1,168.27,207.54Zm-66.53-72.87a23.65,23.65,0,0,0-16.6,7.08,23.13,23.13,0,0,0-6.72,16.66v15a23.51,23.51,0,0,0,23.32,23.81h66.53a22.29,22.29,0,0,0,10.86-2.77,5.16,5.16,0,0,1,4.7-.15,30.29,30.29,0,0,0,20.61,1.92,42.13,42.13,0,0,1-12.88-30.26v-7.45a23.89,23.89,0,0,0-12.41-21,22.15,22.15,0,0,0-10.88-2.78Z" fill="#12a37f"/><path d="M136.8,180.22h-3.31a6.68,6.68,0,0,1-6.63-6.63h0v-8.07a2.08,2.08,0,0,1,2.07-2.07h12.32a2.07,2.07,0,0,1,2.07,2.07v8.07a6.45,6.45,0,0,1-6.52,6.63Z" fill="#514969"/><path d="M112.06,171.83h-3.31a6.67,6.67,0,0,1-6.63-6.62v-3.52a6.67,6.67,0,0,1,6.63-6.63h3.31a6.68,6.68,0,0,1,6.63,6.63v3.52A6.6,6.6,0,0,1,112.06,171.83Z" fill="#514969"/><path d="M161.54,171.83h-3.31a6.68,6.68,0,0,1-6.63-6.62v-3.52a6.68,6.68,0,0,1,6.63-6.63h3.31a6.67,6.67,0,0,1,6.63,6.63v3.52A6.67,6.67,0,0,1,161.54,171.83Z" fill="#514969"/></svg>