<svg xmlns="http://www.w3.org/2000/svg" width="250" height="250" viewBox="0 0 250 250"><title>editing</title><circle cx="125" cy="125" r="125" fill="#f7f5fd"/><path d="M44.9,47.8,173.8,25.1a4.07,4.07,0,0,1,4.7,3.3l29.8,169.2a4.07,4.07,0,0,1-3.3,4.7L76.2,224.9a4.07,4.07,0,0,1-4.7-3.3L41.7,52.5A4,4,0,0,1,44.9,47.8Z" fill="#12a37f"/><path d="M41.7,197.5,71.5,28.4a4.07,4.07,0,0,1,4.7-3.3L205.1,47.8a4.07,4.07,0,0,1,3.3,4.7L178.6,221.7a4.07,4.07,0,0,1-4.7,3.3l-129-22.8A4,4,0,0,1,41.7,197.5Z" fill="#514969"/><path d="M59.4,35.3H190.3a4.1,4.1,0,0,1,4.1,4V211.1a4.12,4.12,0,0,1-4.1,4.1H59.4a4,4,0,0,1-4-4.1V39.3A4,4,0,0,1,59.4,35.3Z" fill="#f7f5fd"/><path d="M85.8,60.1H99.3a4.8,4.8,0,0,1,4.8,4.8v4.3A4.8,4.8,0,0,1,99.3,74H85.8A4.8,4.8,0,0,1,81,69.2V64.9A4.68,4.68,0,0,1,85.8,60.1Z" fill="#514969"/><path d="M118.2,60.1h13.5a4.8,4.8,0,0,1,4.8,4.8v4.3a4.8,4.8,0,0,1-4.8,4.8H118.2a4.8,4.8,0,0,1-4.8-4.8V64.9A4.8,4.8,0,0,1,118.2,60.1Z" fill="#514969"/><path d="M150.7,60.1h13.5a4.8,4.8,0,0,1,4.8,4.8v4.3a4.8,4.8,0,0,1-4.8,4.8H150.7a4.8,4.8,0,0,1-4.8-4.8V64.9A4.74,4.74,0,0,1,150.7,60.1Z" fill="#514969"/><path d="M133.7,176H165a4.12,4.12,0,0,1,4.1,4.1v5.8A4.12,4.12,0,0,1,165,190H133.7a4.12,4.12,0,0,1-4.1-4.1v-5.8A4.12,4.12,0,0,1,133.7,176Z" fill="#514969"/><path d="M85,176h31.3a4.12,4.12,0,0,1,4.1,4.1v5.8a4.12,4.12,0,0,1-4.1,4.1H85a4.12,4.12,0,0,1-4.1-4.1v-5.8A4.12,4.12,0,0,1,85,176Z" fill="#514969"/><path d="M133.7,83.3H165a4.12,4.12,0,0,1,4.1,4.1v5.8a4.12,4.12,0,0,1-4.1,4.1H133.7a4.12,4.12,0,0,1-4.1-4.1V87.4A4.12,4.12,0,0,1,133.7,83.3Z" fill="#514969"/><path d="M85,83.3h31.3a4.12,4.12,0,0,1,4.1,4.1v5.8a4.12,4.12,0,0,1-4.1,4.1H85a4.12,4.12,0,0,1-4.1-4.1V87.4A4.12,4.12,0,0,1,85,83.3Z" fill="#514969"/><path d="M85.8,152.8h78.5a4.8,4.8,0,0,1,4.8,4.8v4.3a4.8,4.8,0,0,1-4.8,4.8H85.8a4.8,4.8,0,0,1-4.8-4.8v-4.3A4.74,4.74,0,0,1,85.8,152.8Z" fill="#514969"/><path d="M114.3,143.6h21.4a5.55,5.55,0,0,0,5.5-5.5h0v-6.8a1.58,1.58,0,0,0-1.6-1.6H110.3a1.58,1.58,0,0,0-1.6,1.6h0v6.8a5.78,5.78,0,0,0,5.6,5.5Z" fill="#514969"/><path d="M23.4,154.2l9.9-37a4.14,4.14,0,0,1,5-2.9l37,9.9a4.14,4.14,0,0,1,2.9,5l-9.9,37a4.14,4.14,0,0,1-5,2.9l-37-9.9A4.14,4.14,0,0,1,23.4,154.2Z" fill="#12a37f"/><path d="M55.6,145.1l-6.4-1.7-.3-.1-11.2-3a2.18,2.18,0,0,1-1.8-2.3l.3-.9a2.07,2.07,0,0,1,2.7-1.2l11.2,3,.3.1,6.4,1.7a2,2,0,0,1,1.7,2.3l-.3.9A1.93,1.93,0,0,1,55.6,145.1Z" fill="#f7f5fd"/><path d="M36.2,144.7l5,1.4a2,2,0,0,1,1.4,2.5l-.2.6a2,2,0,0,1-2.5,1.4l-5-1.4a2,2,0,0,1-1.4-2.5l.2-.6A2.17,2.17,0,0,1,36.2,144.7Z" fill="#f7f5fd"/><path d="M58.5,136.3,54,135.1l-.9-.3-4.5-1.2a1.85,1.85,0,0,1-1.3-2.3l.3-.9a1.85,1.85,0,0,1,2.3-1.3l4.5,1.2.9.3,4.5,1.2a1.85,1.85,0,0,1,1.3,2.3l-.3.9a1.85,1.85,0,0,1-2.3,1.3Z" fill="#f7f5fd"/><path d="M41,126.8l.6.2a2,2,0,0,1,1.4,2.5l-.2.6a2,2,0,0,1-2.5,1.4l-.6-.2a2,2,0,0,1-1.4-2.5l.2-.6A2.08,2.08,0,0,1,41,126.8Z" fill="#f7f5fd"/><path d="M67.9,134l.6.2a2,2,0,0,1,1.4,2.5l-.2.6a2,2,0,0,1-2.5,1.4l-.6-.2a2,2,0,0,1-1.4-2.5l.2-.6A2.08,2.08,0,0,1,67.9,134Z" fill="#f7f5fd"/><path d="M174.7,88.1l37-9.9a4.06,4.06,0,0,1,5,2.9l9.9,37a4.06,4.06,0,0,1-2.9,5l-37,9.9a4.06,4.06,0,0,1-5-2.9l-9.9-37A4.22,4.22,0,0,1,174.7,88.1Z" fill="#12a37f"/><path d="M188.2,115.9l5-1.4a2.08,2.08,0,0,1,2.5,1.4l.2.6a2.08,2.08,0,0,1-1.4,2.5l-5,1.4A2.08,2.08,0,0,1,187,119l-.2-.6A2,2,0,0,1,188.2,115.9Z" fill="#f7f5fd"/><path d="M203.6,92.6l5-1.4a2.08,2.08,0,0,1,2.5,1.4l.2.6a2.08,2.08,0,0,1-1.4,2.5l-5,1.4a2.08,2.08,0,0,1-2.5-1.4l-.2-.6A2,2,0,0,1,203.6,92.6Z" fill="#f7f5fd"/><path d="M194.3,99.9l-4.5,1.2-.9.2-4.5,1.2a1.85,1.85,0,0,1-2.3-1.3h0l-.2-.9a1.85,1.85,0,0,1,1.3-2.3l4.5-1.2.9-.2,4.5-1.2a1.85,1.85,0,0,1,2.3,1.3l.2.9A1.85,1.85,0,0,1,194.3,99.9Z" fill="#f7f5fd"/><path d="M210.2,105.2l-5.2,1.4-.3.1-9,2.4a1.85,1.85,0,0,1-2.3-1.3l-.2-.9a1.85,1.85,0,0,1,1.3-2.3l9-2.4.3-.1,5.1-1.4a1.85,1.85,0,0,1,2.3,1.3l.3.9A1.92,1.92,0,0,1,210.2,105.2Z" fill="#f7f5fd"/><path d="M185.8,107l.6-.2a2.08,2.08,0,0,1,2.5,1.4l.2.6a2.08,2.08,0,0,1-1.4,2.5l-.6.2a2.08,2.08,0,0,1-2.5-1.4l-.2-.6A2,2,0,0,1,185.8,107Z" fill="#f7f5fd"/><path d="M173.6,152.2c2.6-1.1,1.2-.5,6.3-2.7" fill="none" stroke="#12a37f" stroke-linecap="round" stroke-linejoin="round" stroke-width="3"/><line x1="176.7" y1="154" x2="171.2" y2="153.6" fill="none" stroke="#12a37f" stroke-linecap="round" stroke-linejoin="round" stroke-width="3"/><line x1="173.3" y1="148.8" x2="171.2" y2="153.6" fill="none" stroke="#12a37f" stroke-linecap="round" stroke-linejoin="round" stroke-width="3"/><path d="M165.1,57.5c-13-10.8-25.7,1.3-25.7,8.7,0,7.1,5.5,12.6,18.1,12.6h-.1c12.6,0,18.5-8,18.5-14.4s-6.7-16.9-23.8-6.8" fill="none" stroke="#12a37f" stroke-linecap="round" stroke-linejoin="round" stroke-width="3"/><path d="M124.9,84c0-15,12.3-1.7,18.6-8" fill="none" stroke="#12a37f" stroke-linecap="round" stroke-linejoin="round" stroke-width="3"/><line x1="129" y1="81.7" x2="124.9" y2="87.6" fill="none" stroke="#12a37f" stroke-linecap="round" stroke-linejoin="round" stroke-width="3"/><line x1="121" y1="82" x2="124.9" y2="87.6" fill="none" stroke="#12a37f" stroke-linecap="round" stroke-linejoin="round" stroke-width="3"/><path d="M80.9,76.9c2.9,0,2.9,3.5,5.8,3.5s2.9-3.5,5.8-3.5,2.9,3.5,5.8,3.5,2.9-3.5,5.8-3.5" fill="none" stroke="#12a37f" stroke-linecap="round" stroke-linejoin="round" stroke-width="3"/><path d="M131,193.2c3.1,0,3.1,3.7,6.1,3.7s3.1-3.7,6.1-3.7,3,3.7,6.1,3.7,3.1-3.7,6.1-3.7,3.1,3.7,6.1,3.7,3.1-3.7,6.1-3.7" fill="none" stroke="#12a37f" stroke-linecap="round" stroke-linejoin="round" stroke-width="3"/><line x1="183.9" y1="139.9" x2="184.9" y2="151" fill="none" stroke="#12a37f" stroke-linecap="round" stroke-linejoin="round" stroke-width="3"/><line x1="185.5" y1="157.4" x2="185.5" y2="157.4" fill="none" stroke="#12a37f" stroke-linecap="round" stroke-linejoin="round" stroke-width="3"/><path d="M101.9,106.6h2.8a5.38,5.38,0,0,1,5.4,5.4v2.8a5.38,5.38,0,0,1-5.4,5.4h-2.8a5.38,5.38,0,0,1-5.4-5.4V112A5.38,5.38,0,0,1,101.9,106.6Z" fill="#514969"/><path d="M145.3,106.6h2.8a5.38,5.38,0,0,1,5.4,5.4v2.8a5.38,5.38,0,0,1-5.4,5.4h-2.8a5.38,5.38,0,0,1-5.4-5.4V112A5.38,5.38,0,0,1,145.3,106.6Z" fill="#514969"/></svg>