<svg xmlns="http://www.w3.org/2000/svg" width="300" height="300" viewBox="0 0 300 300"><title>typewriter</title><circle cx="150" cy="150" r="150" fill="#f7f5fd"/><path d="M242.68,122.72H60.38l3.28-70.64A10.08,10.08,0,0,1,73.72,42l68.83-4.74a142.8,142.8,0,0,1,17.06,0l70,4.74a10.08,10.08,0,0,1,10.06,10.06Z" fill="#12a37f"/><path d="M228.22,263H74.74A10.82,10.82,0,0,1,64,252.58l-1.81-89.29H240.88l-1.81,89.29A10.85,10.85,0,0,1,228.22,263Z" fill="#514969"/><path d="M22,107h13.2v18.31H22a4,4,0,0,1-4-4h0V110.8A3.93,3.93,0,0,1,22,107Z" fill="#12a37f"/><path d="M160.41,125H142.55a7,7,0,0,0,.9-2.71,8.1,8.1,0,0,1,7.8-8.37,8,8,0,0,1,8.36,7.8v.57A5.72,5.72,0,0,0,160.41,125Z" fill="#fff"/><path d="M163.33,126.68h-23.7l1.45-2.54a5.26,5.26,0,0,0,.67-2,9.94,9.94,0,0,1,2.61-6.85,9.56,9.56,0,0,1,6.85-3.12,9.68,9.68,0,0,1,10.1,9.45v.61a4.09,4.09,0,0,0,.57,1.87ZM145,123.28h13a5.83,5.83,0,0,1-.09-1v-.57a6.3,6.3,0,0,0-6.63-6.1,6.17,6.17,0,0,0-4.43,2,6.5,6.5,0,0,0-1.71,4.6v.24A7.81,7.81,0,0,1,145,123.28Z"/><path d="M249.8,125.55H53.26c-.45,0-1.92.79-1.92,1.69V105c0,.9,1.47,1.69,1.92,1.69H249.8c.46,0,1.93-.79,1.93-1.69v22.26C251.73,126.22,250.26,125.55,249.8,125.55Z" fill="#514969"/><path d="M207.08,211.89h13.68a7.62,7.62,0,0,1,7.68,7.69v3.95a7.62,7.62,0,0,1-7.68,7.69H207.08a7.62,7.62,0,0,1-7.68-7.69v-3.95A7.7,7.7,0,0,1,207.08,211.89Z" fill="#12a37f"/><path d="M81.18,211.89H94.85a7.62,7.62,0,0,1,7.69,7.69v3.95a7.62,7.62,0,0,1-7.69,7.69H81.18a7.62,7.62,0,0,1-7.69-7.69v-3.95A7.7,7.7,0,0,1,81.18,211.89Z" fill="#12a37f"/><path d="M124,231.22h-4.07a7.69,7.69,0,0,1-7.68-7.69v-4.07a7.69,7.69,0,0,1,7.68-7.68H124a7.7,7.7,0,0,1,7.69,7.68v4.07A7.78,7.78,0,0,1,124,231.22Z" fill="#12a37f"/><path d="M153.06,231.22H149a7.7,7.7,0,0,1-7.69-7.69v-4.07a7.7,7.7,0,0,1,7.69-7.68h4.07a7.69,7.69,0,0,1,7.68,7.68v4.07A7.76,7.76,0,0,1,153.06,231.22Z" fill="#12a37f"/><path d="M182.1,231.22H178a7.69,7.69,0,0,1-7.69-7.69v-4.07a7.69,7.69,0,0,1,7.69-7.68h4.06a7.69,7.69,0,0,1,7.69,7.68v4.07A7.76,7.76,0,0,1,182.1,231.22Z" fill="#12a37f"/><path d="M85.25,202.17H81.18a7.7,7.7,0,0,1-7.69-7.68v-4.07a7.7,7.7,0,0,1,7.69-7.69h4.07a7.69,7.69,0,0,1,7.68,7.69v4.07A7.76,7.76,0,0,1,85.25,202.17Z" fill="#12a37f"/><path d="M114.29,202.17h-4.07a7.69,7.69,0,0,1-7.68-7.68v-4.07a7.7,7.7,0,0,1,7.68-7.69h4.07a7.7,7.7,0,0,1,7.69,7.69v4.07A7.77,7.77,0,0,1,114.29,202.17Z" fill="#12a37f"/><path d="M143.34,202.17h-4.07a7.7,7.7,0,0,1-7.69-7.68v-4.07a7.71,7.71,0,0,1,7.69-7.69h4.07a7.69,7.69,0,0,1,7.68,7.69v4.07A7.69,7.69,0,0,1,143.34,202.17Z" fill="#12a37f"/><path d="M172.39,202.17h-4.07a7.69,7.69,0,0,1-7.69-7.68v-4.07a7.7,7.7,0,0,1,7.69-7.69h4.07a7.69,7.69,0,0,1,7.68,7.69v4.07A7.69,7.69,0,0,1,172.39,202.17Z" fill="#12a37f"/><path d="M220.76,202.17h-23.4a7.62,7.62,0,0,1-7.68-7.68v-4a7.62,7.62,0,0,1,7.68-7.68h23.4a7.62,7.62,0,0,1,7.68,7.68v4A7.62,7.62,0,0,1,220.76,202.17Z" fill="#12a37f"/><path d="M180.86,260.38H121.07a8.83,8.83,0,0,1-8.81-8.82h0V243.2a2.23,2.23,0,0,1,2.15-2.15h73.23a2.23,2.23,0,0,1,2.15,2.15v8.36a9,9,0,0,1-8.93,8.82Z" fill="#12a37f"/><path d="M226.63,59.54v91.89H76.43V59.54a4.94,4.94,0,0,1,5-5H221.55a4.9,4.9,0,0,1,5.08,5Z" fill="#f7f5fd"/><path d="M126.05,92.66h3a6,6,0,0,1,6,6v3a6,6,0,0,1-6,6h-3a6,6,0,0,1-6-6v-3A6,6,0,0,1,126.05,92.66Z" fill="#514969"/><path d="M174,92.66H177a6,6,0,0,1,6,6v3a6,6,0,0,1-6,6H174a6,6,0,0,1-6-6v-3A6,6,0,0,1,174,92.66Z" fill="#514969"/><path d="M242.52,125.21h-182l-1.07,34.3v.18a4.46,4.46,0,0,0,1.57,3.1,4.55,4.55,0,0,0,3,1.08H238.78a4.6,4.6,0,0,0,3.25-1.12,4.39,4.39,0,0,0,1.55-3.06v-.08Z" fill="#514969"/><path d="M246.07,118.2a3.34,3.34,0,0,0-3.27-3.39H163.91a4.06,4.06,0,0,0-3.81,2.57c-1.54,3.37-.31,9.84,1.76,12.24,4.87,5.37,14,6.32,39.12,6.44h.68a5.24,5.24,0,0,1,2.72.76c2.69,1.67,4.16,5.66,3.41,9.29s-3.27,6.22-6.13,6.22H101.18c-2.91,0-5.49-2.6-6.13-6.18-.67-3.76.76-7.69,3.46-9.36a4.78,4.78,0,0,1,2.67-.73h.8c25.07-.12,34.24-1.07,39.11-6.44,2.11-2.32,3.38-8.63,1.82-12.14a4.1,4.1,0,0,0-3.87-2.67H60.27a3.33,3.33,0,0,0-2.49,1.13,3.15,3.15,0,0,0-.79,2.32l-1,48c0,3.07,2.23,5.65,4.86,5.65h181.4c2.73,0,4.86-2.48,4.86-5.68Z" fill="#12a37f"/><path d="M198.83,153.24H103a10.14,10.14,0,0,1-10.17-10.18V138.2A2.22,2.22,0,0,1,95,136.06H206.86A2.21,2.21,0,0,1,209,138.2h0v4.86a10,10,0,0,1-10.17,10.18Z" fill="#514969"/><path d="M165.49,71h34.92a5.43,5.43,0,0,1,5.43,5.42v5.31a5.43,5.43,0,0,1-5.43,5.43H165.49a5.42,5.42,0,0,1-5.42-5.43V76.38A5.42,5.42,0,0,1,165.49,71Z" fill="#514969"/><path d="M109,71H143.9a5.43,5.43,0,0,1,5.43,5.42v5.31a5.43,5.43,0,0,1-5.43,5.43H109a5.42,5.42,0,0,1-5.42-5.43V76.38A5.49,5.49,0,0,1,109,71Z" fill="#514969"/><rect x="35.18" y="112.21" width="16.16" height="1.02" fill="#514969"/><path d="M51.34,100.79v1.81H35.18v-1.81a3.33,3.33,0,0,1,.18-1.2,3.26,3.26,0,0,1,3.07-2.42h9.66a3.56,3.56,0,0,1,3.25,3.62Z" fill="#514969"/><rect x="35.18" y="108.03" width="16.16" height="5.31" fill="#514969"/><rect x="35.18" y="118.76" width="16.16" height="5.31" fill="#514969"/><path d="M51.34,129.72v1.7A3.56,3.56,0,0,1,48.09,135H38.43a3.56,3.56,0,0,1-3.25-3.62v-1.7Z" fill="#514969"/><path d="M267.89,100.79v1.81H251.73v-1.81a3.33,3.33,0,0,1,.18-1.2A3.26,3.26,0,0,1,255,97.17h9.66a3.56,3.56,0,0,1,3.25,3.62Z" fill="#514969"/><rect x="251.73" y="108.03" width="16.16" height="5.31" fill="#514969"/><rect x="251.73" y="118.76" width="16.16" height="5.31" fill="#514969"/><path d="M267.89,129.72v1.7a3.56,3.56,0,0,1-3.25,3.62H255a3.56,3.56,0,0,1-3.25-3.62v-1.7Z" fill="#514969"/></svg>